<svg width="34" height="41" viewBox="0 0 34 41" fill="none" xmlns="http://www.w3.org/2000/svg">
<g clip-path="url(#clip0_108_82)">
<path d="M13.3333 9.18162C12.9091 9.1197 12.8889 9.09906 13.0909 9.07842C13.4748 9.0165 14.3636 9.09906 14.9899 9.24354C16.4445 9.59441 17.7576 10.5026 19.1515 12.0918L19.5152 12.5253L20.0404 12.4427C22.2828 12.0712 24.5859 12.3602 26.5051 13.2683C27.0303 13.516 27.8586 14.0113 27.9596 14.1352C28 14.1765 28.0606 14.4448 28.101 14.7131C28.2424 15.6832 28.1818 16.4056 27.8788 16.9628C27.7172 17.2724 27.7172 17.355 27.8182 17.6233C27.899 17.8297 28.1414 17.9742 28.3636 17.9742C28.8485 17.9742 29.3535 17.1899 29.596 16.096L29.697 15.6625L29.8788 15.8689C30.9091 17.0454 31.7172 18.6759 31.8384 19.8318L31.8788 20.1414L31.697 19.8731C31.3939 19.3983 31.1111 19.0887 30.7273 18.8204C30.0404 18.3457 29.3131 18.2012 27.3939 18.098C25.6566 17.9948 24.6667 17.8504 23.697 17.5201C22.0404 16.9628 21.1919 16.2404 19.2323 13.5779C18.3636 12.4014 17.8182 11.7616 17.2727 11.225C16.0808 10.0485 14.8889 9.42929 13.3333 9.18162Z" fill="#FF4EA3"/>
<path d="M28.3839 11.8029C28.4243 11.0186 28.5253 10.5026 28.7475 10.0279C28.8283 9.84212 28.9091 9.677 28.9293 9.677C28.9495 9.677 28.9091 9.82148 28.8485 9.9866C28.6869 10.4407 28.6667 11.0805 28.7677 11.8029C28.9091 12.7317 28.9697 12.8555 29.9394 13.8669C30.3839 14.3416 30.9091 14.9402 31.1112 15.1878L31.4546 15.6419L31.1112 15.3117C30.6869 14.8989 29.7172 14.1146 29.495 14.0114C29.3536 13.9288 29.3334 13.9288 29.2324 14.032C29.1516 14.1146 29.1314 14.2384 29.1314 14.837C29.1112 15.7658 28.9899 16.3437 28.6869 16.9422C28.5253 17.2518 28.5051 17.1899 28.6465 16.839C28.7475 16.5707 28.7677 16.4469 28.7677 15.5594C28.7677 13.7637 28.5657 13.3303 27.3334 12.6079C27.0303 12.4221 26.5051 12.1538 26.2021 12.0093C25.8788 11.8648 25.6364 11.741 25.6566 11.741C25.697 11.6997 26.8889 12.0506 27.3536 12.257C28.0606 12.5459 28.1819 12.5666 28.2627 12.5459C28.3233 12.484 28.3637 12.3189 28.3839 11.8029Z" fill="#FF4EA3"/>
<path d="M14.1616 14.8783C13.3131 13.6812 12.7676 11.8236 12.8889 10.4407L12.9293 10.0073L13.1313 10.0485C13.4949 10.1105 14.1212 10.3581 14.4242 10.5439C15.2323 11.0393 15.5959 11.7204 15.9394 13.4128C16.0404 13.9082 16.1818 14.4861 16.2424 14.6719C16.3434 14.9815 16.7272 15.7039 17.0505 16.1579C17.2727 16.4882 17.1313 16.6533 16.6262 16.612C15.8585 16.5294 14.8282 15.8071 14.1616 14.8783Z" fill="#FF4EA3"/>
<path d="M27.3536 23.8565C23.3536 22.2053 21.9394 20.7812 21.9394 18.3663C21.9394 18.0155 21.9596 17.7265 21.9596 17.7265C21.9798 17.7265 22.1212 17.8503 22.3031 17.9948C23.1111 18.6553 24.0202 18.9443 26.5455 19.3158C28.0202 19.5428 28.8687 19.7079 29.6364 19.9762C32.0808 20.8018 33.596 22.4943 33.9596 24.7853C34.0606 25.4458 34 26.7048 33.8384 27.3653C33.697 27.8813 33.293 28.8307 33.1919 28.8514C33.1717 28.8514 33.1313 28.7482 33.1313 28.5831C33.0909 27.7162 32.6667 26.8906 31.9596 26.2508C31.1111 25.5077 30.0202 24.9504 27.3536 23.8565Z" fill="#FF4EA3"/>
<path d="M24.5253 24.5376C24.4849 24.228 24.3839 23.8359 24.3233 23.6707L24.2223 23.3611L24.4041 23.5882C24.6667 23.8978 24.8688 24.2693 25.0506 24.7853C25.192 25.1775 25.192 25.3013 25.192 25.9411C25.192 26.5603 25.1718 26.7048 25.0506 27.0557C24.8485 27.613 24.6061 28.0051 24.2021 28.4385C23.4748 29.2022 22.5253 29.615 21.1718 29.8008C20.9294 29.8214 20.2425 29.8833 19.6364 29.9246C18.1213 30.0072 17.1112 30.1723 16.2021 30.5025C16.0809 30.5438 15.9597 30.5851 15.9395 30.5645C15.899 30.5232 16.5253 30.1517 17.0304 29.904C17.7374 29.5531 18.4647 29.3673 20.0607 29.0784C20.8485 28.9545 21.6566 28.7894 21.8586 28.7069C23.8586 28.067 24.8485 26.4778 24.5253 24.5376Z" fill="#FF4EA3"/>
<path d="M26.3637 27.8607C25.8384 26.6842 25.7172 25.5696 26 24.517C26.0404 24.4138 26.0808 24.3106 26.1212 24.3106C26.1616 24.3106 26.2828 24.3725 26.4041 24.4551C26.6465 24.6202 27.1515 24.9092 28.4445 25.6316C30.0808 26.5397 31.0101 27.2415 31.6566 28.0464C32.2223 28.7482 32.5657 29.5531 32.7273 30.5438C32.8283 31.1011 32.7677 32.4427 32.6263 33C32.1818 34.7544 31.1717 36.1579 29.697 36.9628C29.4748 37.0867 29.293 37.1692 29.2728 37.1692C29.2525 37.1692 29.3334 36.9628 29.4546 36.7152C29.9394 35.6625 30 34.6512 29.6364 33.516C29.4142 32.8142 28.9495 31.968 28.0202 30.5438C26.9091 28.8927 26.6465 28.4592 26.3637 27.8607Z" fill="#FF4EA3"/>
<path d="M11.3131 34.1765C12.808 32.8969 14.6464 31.9887 16.3434 31.6998C17.0707 31.5759 18.2828 31.6172 18.9495 31.803C20.0202 32.0919 20.9899 32.7111 21.4949 33.4748C21.9798 34.2178 22.202 34.8576 22.4242 36.2818C22.505 36.8391 22.606 37.417 22.6262 37.5408C22.7878 38.2839 23.1111 38.8618 23.5151 39.1714C24.1414 39.6461 25.2323 39.6667 26.303 39.2539C26.4848 39.192 26.6464 39.1301 26.6464 39.1507C26.6868 39.192 26.1414 39.5635 25.7777 39.7493C25.2727 40.0176 24.8687 40.1002 24.3232 40.1002C23.3535 40.1002 22.5252 39.5842 21.8586 38.5522C21.7171 38.3458 21.4343 37.7472 21.1919 37.1899C20.4848 35.5181 20.1212 35.0228 19.2929 34.4655C18.5656 33.9908 17.6363 33.8876 16.9293 34.2385C16 34.6925 15.7575 35.9103 16.404 36.6533C16.6666 36.9629 17.1515 37.2106 17.5555 37.2725C18.303 37.3757 18.9495 36.7772 18.9495 36.0135C18.9495 35.5181 18.7676 35.2292 18.2828 35.0021C17.6363 34.7132 16.9293 35.0434 16.9495 35.6832C16.9495 35.9516 17.0707 36.1167 17.3333 36.2405C17.4949 36.3231 17.4949 36.3231 17.3737 36.3024C16.7878 36.1786 16.6464 35.4356 17.1111 34.9608C17.6767 34.3829 18.8687 34.6306 19.2727 35.4356C19.4343 35.7658 19.4545 36.4263 19.3131 36.8391C18.9697 37.7472 18 38.2219 17.0101 37.9536C16.3434 37.7679 16.0606 37.5821 15.2525 36.7359C13.8383 35.2498 13.2929 34.9608 11.2727 34.6512L10.8889 34.5893L11.3131 34.1765Z" fill="#FF4EA3"/>
<path fill-rule="evenodd" clip-rule="evenodd" d="M0.686669 0.966981C5.39374 6.80805 12.6463 15.8896 13.0099 16.3849C13.3129 16.7977 13.1917 17.1899 12.6867 17.4788C12.4038 17.644 11.818 17.8091 11.5352 17.8091C11.2119 17.8091 10.8281 17.644 10.5655 17.3757C10.3836 17.1899 9.59576 16.0134 7.81798 13.1858C6.46445 11.0186 5.31293 9.22291 5.29273 9.20228C5.21192 9.161 5.21192 9.161 7.67657 13.6605C9.23212 16.4881 9.73717 17.4995 9.73717 17.6233C9.73717 17.8916 9.65637 18.0361 9.33313 18.4076C8.78768 19.0268 8.54525 19.7286 8.36344 21.194C8.16142 22.8246 7.61596 23.9804 6.06041 25.9412C5.15132 27.097 5.0099 27.3034 4.78768 27.7781C4.50485 28.356 4.42404 28.6863 4.38364 29.4293C4.34323 30.2136 4.42404 30.709 4.64626 31.452C4.84828 32.1125 5.07051 32.5459 5.61596 33.3922C6.08061 34.1352 6.36344 34.6925 6.36344 34.8989C6.36344 35.064 6.40384 35.064 7.13111 34.8989C8.86849 34.4861 10.3028 33.7843 11.0907 32.9174C11.5756 32.3808 11.6968 32.0919 11.6968 31.3488C11.6968 30.8741 11.6766 30.7709 11.5554 30.4819C11.3533 30.0279 10.9695 29.6564 10.1412 29.0784C9.05031 28.3148 8.58566 27.6956 8.46445 26.87C8.36344 26.1682 8.48465 25.6935 9.09071 24.3932C9.71697 23.0516 9.87859 22.4943 9.9796 21.1321C10.0402 20.2652 10.1412 19.9144 10.3836 19.646C10.6463 19.3571 10.8685 19.2539 11.4947 19.1713C12.5251 19.0268 13.1917 18.7585 13.717 18.2425C14.1816 17.8091 14.3836 17.3756 14.4038 16.7358L14.424 16.2611L14.1614 15.9721C13.2119 14.8576 0.060406 0.0794678 -0.000200037 0.0794678C-0.0204021 0.0794678 0.30283 0.471625 0.686669 0.966981ZM6.88869 30.3168C7.11091 29.9247 6.9897 29.4293 6.62606 29.1816C6.28263 28.9546 5.75738 29.0578 5.75738 29.3674C5.75738 29.45 5.79778 29.5325 5.91899 29.5738C6.10081 29.677 6.12101 29.7802 5.9796 30.0072C5.83818 30.2343 5.83818 30.4407 6.02 30.5851C6.30283 30.8122 6.68667 30.6883 6.88869 30.3168Z" fill="#FF4EA3"/>
<path fill-rule="evenodd" clip-rule="evenodd" d="M15.0708 19.4603C14.5859 19.6048 14.1213 20.1414 13.9798 20.6781C13.899 21.0083 13.9394 21.6068 14.0809 21.7926C14.3031 22.0816 14.5051 22.1641 15.0708 22.1641C16.1819 22.1641 17.1314 21.6688 17.2324 21.0702C17.3334 20.5749 16.9091 19.8937 16.3233 19.5841C16.0202 19.419 15.394 19.3571 15.0708 19.4603ZM16.3637 20.4923C16.5253 20.2446 16.4647 19.9763 16.1617 19.7905C15.6162 19.4397 14.7879 19.7286 14.7879 20.2653C14.7879 20.5336 15.2122 20.8225 15.6162 20.8225C15.8788 20.8225 16.2425 20.6574 16.3637 20.4923Z" fill="#FF4EA3"/>
</g>
<defs>
<clipPath id="clip0_108_82">
<rect width="34" height="40" fill="white" transform="translate(0 0.0794678)"/>
</clipPath>
</defs>
</svg>
